<?xml version="1.0" encoding="UTF-8"?> <svg xmlns="http://www.w3.org/2000/svg" xmlns:xlink="http://www.w3.org/1999/xlink" width="279px" height="298px" viewBox="0 0 279 298" version="1.1"><title>Group 230 Copy</title><desc>Created with Sketch.</desc><defs><polygon id="path-1" points="0.327095694 0.338141485 255.266106 0.338141485 255.266106 148.5 0.327095694 148.5"></polygon><polygon id="path-3" points="0 0.166673566 259.9501 0.166673566 259.9501 150.104674 0 150.104674"></polygon><polygon id="path-5" points="0.3949704 0.163944 29.4515181 0.163944 29.4515181 23.6733552 0.3949704 23.6733552"></polygon></defs><g id="Blog" stroke="none" stroke-width="1" fill="none" fill-rule="evenodd"><g id="Thumbnail" transform="translate(-10.000000, 0.000000)"><g id="Group-230-Copy" transform="translate(10.000000, 0.000000)"><g id="Group-3" transform="translate(22.968000, 148.732056)"><mask id="mask-2" fill="white"><use xlink:href="#path-1"></use></mask><g id="Clip-2"></g><path d="M165.200112,1.1891088 C160.24932,-1.6795152 126.299448,3.3556248 120.572892,6.6499488 L5.07474,77.6713608 C2.096028,79.3848528 0.510048,81.5577048 0.357588,83.6533368 L0.332244,83.6371008 L0.34254,83.9978568 C0.342936,84.0948768 0.344124,84.1915008 0.350856,84.2877288 L0.568656,91.9241928 L0.576576,91.9309248 C-0.188892,94.2673248 0.798732,96.6302568 3.655476,98.2851408 L68.118732,145.352513 C75.556008,149.878397 92.179296,148.235789 95.677956,148.096397 C96.55272,148.061153 97.433424,147.978389 98.307396,147.847709 C100.054944,147.585953 101.775168,147.134117 103.364316,146.496161 C104.158296,146.176589 104.919804,145.810685 105.635772,145.399241 L251.559,59.1342048 C256.55652,56.1796488 256.487616,48.9253248 251.434656,46.0666008 L165.200112,1.1891088 Z" id="Fill-1" fill="#0065AD" mask="url(#mask-2)"></path></g><g id="Group-6" transform="translate(0.000000, 143.980056)"><mask id="mask-4" fill="white"><use xlink:href="#path-3"></use></mask><g id="Clip-5"></g><path d="M256.612316,49.9965048 L173.96474,2.1109968 C169.013948,-0.7576272 160.358576,-0.4119192 154.631624,2.8828008 L9.9656964,86.1105168 C11.2515084,82.5694848 12.5602884,78.7864968 12.5602884,78.7864968 L0.0217404,85.8261888 L-3.96e-05,95.2696008 C-3.96e-05,95.2696008 0.0035244,95.2680168 0.0043164,95.2676208 C-0.0626076,97.1407008 1.0315404,98.9385408 3.3378444,100.275041 L85.9850244,148.160549 C90.9358164,151.028777 99.5915844,150.683465 105.318536,147.388349 L255.207308,61.1557848 C260.933864,57.8610648 261.563108,52.8647328 256.612316,49.9965048" id="Fill-4" fill="#E0EEFF" mask="url(#mask-4)"></path></g><path d="M81.1889538,284.890637 C81.1869696,286.327721 80.1708336,286.905089 78.9194736,286.180013 C77.6681136,285.455333 76.6555416,283.702637 76.6579134,282.265157 C76.6598976,280.828073 77.6760336,280.251101 78.9273936,280.975781 C80.1783576,281.700857 81.1913256,283.453553 81.1889538,284.890637" id="Fill-7" fill="#89BAF5"></path><path d="M271.782126,182.266722 L260.986374,182.722914 L185.78241,139.150242 C180.831618,136.281618 172.17585,136.627326 166.449294,139.92165 L163.882026,144.204786 C160.610274,144.431694 157.30209,145.326258 154.631466,146.862738 L95.059998,246.253194 L95.360958,294.065442 C98.859618,293.92605 102.454902,293.016042 105.318774,291.368682 L255.207546,205.135722 C255.788478,204.801102 256.314762,204.448662 256.79115,204.082758 L267.024978,198.19503 C270.328014,196.294626 271.931418,193.828338 271.75005,191.530746 L271.782126,182.266722 Z" id="Fill-9" fill="#A9CCF5"></path><path d="M46.168848,265.707486 L34.670196,259.045578 C34.183116,258.763626 33.785532,258.000534 33.7863228,257.350302 C33.787116,256.700466 34.18668,256.399506 34.67376,256.681458 L46.172412,263.343366 C46.659096,263.625318 47.057076,264.38841 47.0558907,265.038642 C47.055096,265.688478 46.655928,265.989438 46.168848,265.707486" id="Fill-11" fill="#89BAF5"></path><path d="M268.444361,177.675577 L185.797181,129.790069 C180.846389,126.921445 172.190621,127.267153 166.463669,130.561873 L16.5752928,216.794833 C15.9935688,217.129453 15.4672848,217.481893 14.9912928,217.847797 L4.7574648,223.735525 C-0.9694872,227.030245 -1.5983352,232.026181 3.3524568,234.894805 L85.9996368,282.780313 C90.9504288,285.648541 99.6065928,285.303229 105.333149,282.008509 L255.221525,195.775549 C255.785033,195.451621 256.297457,195.110269 256.761965,194.756641 L267.039353,188.834857 C272.765909,185.540137 273.395153,180.543805 268.444361,177.675577" id="Fill-13" fill="#E0EEFF"></path><path d="M259.531628,179.638945 L254.237504,176.571529 C254.219288,176.560837 254.203844,176.546977 254.185628,176.536681 L177.796436,132.276949 C176.436572,131.489305 174.759512,131.486533 173.397272,132.270217 L138.080012,152.588581 C137.796872,152.681641 137.52086,152.803213 137.256728,152.955277 L11.2146804,225.468421 C8.2791324,227.157361 8.2727964,231.390601 11.2028004,233.088253 L16.4973204,236.155669 C16.5155364,236.166361 16.5305844,236.179825 16.5488004,236.190517 L92.9383884,280.449853 C94.2982524,281.237497 95.9753124,281.240269 97.3371564,280.456585 L132.654812,260.138221 C132.937556,260.045557 133.213964,259.923589 133.478492,259.771525 L259.520144,187.258381 C262.455296,185.569837 262.461632,181.336597 259.531628,179.638945" id="Fill-15" fill="#2D62D1"></path><path d="M245.166214,206.014327 L245.166214,206.014327 C245.296498,207.067687 246.148294,207.497347 247.059886,206.969083 L253.20541,203.407855 C254.117002,202.879591 254.756146,201.585463 254.626258,200.532103 C254.495974,199.478743 253.643782,199.049083 252.73219,199.576951 L246.587062,203.138575 C245.67547,203.666443 245.036326,204.960967 245.166214,206.014327" id="Fill-17" fill="#E6F0FF"></path><path d="M245.666243,206.568886 L245.666243,206.568886 C245.796527,207.622246 246.648323,208.051906 247.559915,207.523642 L253.705439,203.962414 C254.617031,203.43415 255.256175,202.140022 255.126287,201.086662 C254.996003,200.033302 254.143811,199.603642 253.232219,200.131906 L247.087091,203.693134 C246.175499,204.221398 245.536355,205.515526 245.666243,206.568886" id="Fill-19" fill="#5297EB"></path><path d="M234.019804,212.60943 L234.019804,212.60943 C234.149692,213.66279 235.001884,214.09245 235.913476,213.564186 L242.059,210.002958 C242.970592,209.474694 243.609736,208.180566 243.479452,207.127206 C243.349564,206.073846 242.496976,205.644186 241.585384,206.172054 L235.440256,209.733678 C234.528664,210.261546 233.88952,211.55607 234.019804,212.60943" id="Fill-21" fill="#E6F0FF"></path><path d="M234.480391,213.051445 L234.480391,213.051445 C234.610279,214.104805 235.462471,214.534465 236.374063,214.006201 L242.519587,210.444973 C243.431179,209.916709 244.070323,208.622581 243.940039,207.569221 C243.810151,206.515861 242.957563,206.086201 242.045971,206.614465 L235.900843,210.175693 C234.989251,210.703957 234.350107,211.998085 234.480391,213.051445" id="Fill-23" fill="#5297EB"></path><path d="M220.019818,182.031577 L207.070222,174.555097 C206.798962,174.310369 206.482558,174.077521 206.11309,173.864077 L188.88115,163.915369 C186.121822,162.322261 181.623658,162.322261 178.884526,163.916161 L99.7431336,209.954329 C97.0043976,211.547833 97.0206336,214.154701 99.7795656,215.747809 L112.729162,223.223893 C113.000422,223.469017 113.316826,223.701865 113.686294,223.914913 L130.91863,233.864017 C133.677562,235.456729 138.175726,235.456333 140.914858,233.863225 L220.05625,187.824661 C222.795382,186.231157 222.77875,183.624289 220.019818,182.031577" id="Fill-25" fill="#0040C7"></path><polygon id="Fill-27" fill="#A9CCF5" points="100.263834 197.908722 100.95921 193.08069 178.833402 146.20815 178.711038 134.475066 182.690046 136.956006 182.899134 148.310118 181.886166 148.917186"></polygon><path d="M111.23042,201.225974 C111.538508,206.098754 108.309524,211.869662 104.017676,214.115378 C99.7258284,216.36149 95.9966964,214.231802 95.6886084,209.359022 C95.3805204,204.485846 98.6095044,198.715334 102.901352,196.469222 C107.192804,194.223506 110.921936,196.352798 111.23042,201.225974" id="Fill-29" fill="#1717BD"></path><path d="M104.414112,207.635472 L104.031576,207.864756 C102.62934,208.706652 100.95426,208.728432 100.925748,207.199476 L99.569448,196.490844 C99.541332,194.962284 100.665576,193.023072 102.067812,192.181176 L106.147404,189.732708 C107.54964,188.890812 108.720216,189.453132 108.747936,190.981692 L107.173836,203.49648 C107.201556,205.025436 105.816348,206.793576 104.414112,207.635472" id="Fill-31" fill="#A9CCF5"></path><polygon id="Fill-33" fill="#5366C4" points="101.000552 170.460576 135.1805 192.820716 222.547604 144.163008 174.336188 118.522404"></polygon><polygon id="Fill-35" fill="#8DBAF2" points="164.267334 133.692728 162.03033 133.553336 174.058434 64.5740964 176.295438 64.7130924"></polygon><polygon id="Fill-37" fill="#8DBAF2" points="102.250408 138.46037 101.000632 136.677182 187.80106 66.6493344 188.271508 70.0917624"></polygon><polygon id="Fill-39" fill="#8DBAF2" points="103.695966 148.342194 102.604986 146.440998 183.890718 89.873586 184.320378 94.040298"></polygon><polygon id="Fill-41" fill="#8DBAF2" points="104.396728 159.769724 103.329508 157.853876 189.903028 100.20974 190.970248 102.125192"></polygon><polygon id="Fill-43" fill="#8DBAF2" points="150.712452 140.6691 148.479012 140.509512 160.408908 75.290688 162.642348 75.450276"></polygon><polygon id="Fill-45" fill="#8DBAF2" points="142.002392 144.24993 139.742816 144.26775 145.830128 88.535106 148.089704 88.517286"></polygon><path d="M102.16804,129.843688 L104.14012,164.72614 L185.085688,117.644116 L187.865608,57.7170396 L102.16804,129.843688 Z M100.165864,171.892948 L97.6999716,128.269984 L191.177752,48.9230676 L181.545448,125.596588 L100.165864,171.892948 Z" id="Fill-47" fill="#8DBAF2"></path><polygon id="Fill-49" fill="#8DBAF2" points="195.358363 17.6401368 181.916935 122.641517 176.857639 121.776653 190.374703 19.5322248"></polygon><polygon id="Fill-51" fill="#0C4CD1" points="210.027391 145.46074 218.222215 141.321748 207.015415 134.724784"></polygon><path d="M185.290142,96.8473044 C185.290142,96.8473044 185.073134,78.6447684 195.29825,83.1334284 C202.931942,86.4847764 200.986394,105.046088 200.986394,105.046088" id="Stroke-53" stroke="#2D62D1" stroke-width="1.30482" stroke-linecap="round" stroke-linejoin="round"></path><polygon id="Fill-55" fill="#FF82B9" points="157.245304 135.798775 194.884312 157.732027 201.62542 113.274295 165.02908 93.2929272"></polygon><polygon id="Fill-57" fill="#D93079" points="165.027654 93.323736 174.564126 92.18484 174.24891 98.35848"></polygon><polygon id="Fill-59" fill="#F55D9F" points="209.472437 107.188765 174.564245 92.1847212 173.937773 98.1884772 201.624113 113.305381"></polygon><polygon id="Fill-61" fill="#FF82B9" points="207.533066 144.884164 218.48603 145.1677 214.247246 107.744908 206.33675 109.632244"></polygon><polygon id="Fill-63" fill="#F55D9F" points="214.222496 107.757817 177.020276 86.8034772 174.564284 92.1847212 200.481296 111.024817"></polygon><polygon id="Fill-65" fill="#FF82B9" points="194.882728 157.763034 218.485912 145.167858 207.532948 144.884322"></polygon><polygon id="Fill-67" fill="#FF61A6" points="197.436215 156.034019 217.349471 145.138475 207.533027 144.884243"></polygon><path d="M190.765714,114.943435 C190.709878,116.025703 189.89887,116.455363 188.952826,115.902547 C188.006782,115.349731 187.284874,114.023923 187.340314,112.941259 C187.395358,111.858595 188.206762,111.429331 189.153202,111.982147 C190.09885,112.534963 190.820758,113.860771 190.765714,114.943435" id="Fill-69" fill="#D93079"></path><path d="M175.085024,106.91109 C175.029584,107.993754 174.21818,108.423018 173.272136,107.870202 C172.326092,107.317386 171.604184,105.991578 171.659624,104.908914 C171.714668,103.82625 172.526468,103.396986 173.472512,103.949802 C174.41816,104.502618 175.140464,105.828426 175.085024,106.91109" id="Fill-71" fill="#D93079"></path><path d="M173.552465,105.740078 C173.552465,105.740078 173.335061,87.5375424 183.560177,92.0262024 C191.194265,95.3775504 189.248321,113.938862 189.248321,113.938862" id="Stroke-73" stroke="#2D62D1" stroke-width="1.30482" stroke-linecap="round" stroke-linejoin="round"></path><polygon id="Fill-75" fill="#FF82B9" points="201.623994 113.305302 200.786058 118.80891 206.503902 114.56775 206.336394 109.632402"></polygon><polygon id="Fill-77" fill="#FF82B9" points="194.882728 157.763034 207.532948 144.884322 206.410684 114.569334 201.316144 115.334802"></polygon><polygon id="Fill-79" fill="#FF61A6" points="197.436215 156.034019 207.533027 144.884243 206.410763 111.819035 202.913687 114.232259"></polygon><path d="M171.513302,118.399129 L185.64377,126.170233" id="Stroke-81" stroke="#FFFFFF" stroke-width="0.563904" stroke-linecap="round" stroke-linejoin="round"></path><path d="M172.393096,123.221736 L181.510996,128.236284" id="Stroke-83" stroke="#FFFFFF" stroke-width="0.563904" stroke-linecap="round" stroke-linejoin="round"></path><path d="M101.613125,258.01681 L49.5494208,227.958034 C47.8596888,226.98229 48.0735288,225.262066 50.0254128,224.13505 L68.4948528,213.471958 C70.4467368,212.344942 73.4258448,212.22139 75.1163688,213.197134 L127.180073,243.256306 C128.869805,244.231654 128.655965,245.951878 126.704081,247.078894 L108.234641,257.742382 C106.282757,258.869002 103.303253,258.992554 101.613125,258.01681" id="Fill-85" fill="#0040C7"></path><path d="M97.2466704,258.01681 L45.1829664,227.958034 C43.4928384,226.98229 43.7070744,225.262066 45.6585624,224.13505 L64.1283984,213.471958 C66.0798864,212.344942 69.0593904,212.22139 70.7495184,213.197134 L122.813222,243.256306 C124.502954,244.231654 124.289114,245.951878 122.337626,247.078894 L103.86779,257.742382 C101.915906,258.869002 98.9367984,258.992554 97.2466704,258.01681" id="Fill-87" fill="#FF61A6"></path><path d="M53.2465956,223.542356 L55.4428116,223.451672 C55.4075676,224.579084 56.0835396,225.742928 57.4707276,226.54364 C59.2277796,227.5574 61.1396676,227.654024 62.4381516,226.904396 C63.7968276,226.11992 63.2642076,225.320792 62.5660596,224.262284 L61.4802276,222.67472 C60.7428756,221.639972 60.2478756,220.252784 62.1950076,219.12854 C64.2241116,217.95836 67.4982396,218.116364 69.9265116,219.518996 C71.5188276,220.436924 72.2585556,221.636012 72.2419236,222.751544 L70.2290556,222.854504 C70.1831196,221.93816 69.6908916,221.091512 68.4462636,220.373564 C66.9569076,219.513056 65.2069836,219.369704 64.0106676,220.059932 C62.7327756,220.797284 63.4075596,221.751248 64.0237356,222.620864 L65.1095676,224.184668 C65.9906676,225.46652 66.2821236,226.68818 64.3151916,227.8247 C62.2056996,229.0424 58.7870316,229.012304 55.9706796,227.386328 C54.0936396,226.30406 53.2137276,224.9042 53.2465956,223.542356" id="Fill-89" fill="#FFFFFF"></path><polygon id="Fill-91" fill="#FFFFFF" points="76.7037744 223.711369 78.3978624 224.689885 72.8202024 227.910553 79.0421544 231.502273 84.6198144 228.282793 86.3344944 229.271209 73.0288944 236.954797 71.3138184 235.964005 77.5817064 232.346149 71.3597544 228.754033 65.0922624 232.372285 63.3977784 231.394561"></polygon><path d="M92.3133024,240.3364 C95.6195064,238.42768 96.0970824,236.3368 93.7103904,234.958324 C91.3236984,233.58064 87.7022784,233.856256 84.3964704,235.764976 C81.0704664,237.685972 80.4919104,239.834272 82.8786024,241.213144 C85.2652944,242.590432 88.9876944,242.256208 92.3133024,240.3364 M82.6417944,234.752008 C86.9023584,232.293244 91.8246384,232.160584 95.1910344,234.103756 C98.5562424,236.04772 98.3269584,238.91278 94.0873824,241.359664 C89.8074144,243.831892 84.7635624,244.010488 81.3983544,242.067712 C78.0323544,240.123748 78.3622224,237.223444 82.6417944,234.752008" id="Fill-93" fill="#FFFFFF"></path><path d="M100.599523,245.190884 C102.924835,246.532136 104.899291,246.688556 106.786231,245.59916 C108.712771,244.487192 108.158371,243.440564 105.812071,242.086244 L103.893451,240.978236 L98.5997232,244.035752 L100.599523,245.190884 Z M103.559623,239.216432 L107.373499,241.41938 C110.373991,243.150692 111.400423,244.89032 108.479131,246.578072 C105.679411,248.19296 102.361327,247.799732 99.4237992,246.103664 L97.2204552,244.831316 L91.9461312,247.876556 L90.2532312,246.898832 L103.559623,239.216432 Z" id="Fill-95" fill="#FFFFFF"></path><polygon id="Fill-97" fill="#5366C4" points="130.052419 152.814974 127.789675 152.864078 132.917479 99.6808824 135.180223 99.6317784"></polygon><polygon id="Fill-99" fill="#5366C4" points="118.573052 160.170358 116.30714 160.257478 120.31466 110.747182 122.580572 110.660458"></polygon><polygon id="Fill-101" fill="#8DBAF2" points="228.234877 71.5124124 187.136413 49.8500244 189.131461 46.3937364 230.229529 68.0557284"></polygon><g id="Group-105" transform="translate(189.684000, 0.232056)"><mask id="mask-6" fill="white"><use xlink:href="#path-5"></use></mask><g id="Clip-104"></g><path d="M29.4479064,3.4349832 C29.3287104,0.8182152 26.4343464,-0.6996528 24.2135784,0.6899112 L3.9027384,13.4030952 C2.2672584,14.4267552 0.9414504,16.6609872 0.7858224,18.6540552 L0.3949704,23.6733552 L27.8448984,6.4917072 C28.8919224,5.8363272 29.5045344,4.6685232 29.4479064,3.4349832" id="Fill-103" fill="#FF61A6" mask="url(#mask-6)"></path></g><polygon id="Fill-106" fill="#DBEFFF" points="140.884405 218.530105 138.844609 215.213605 215.830177 169.005553 218.367745 145.508101 222.747505 142.312381 219.619501 171.272653"></polygon><polygon id="Fill-108" fill="#DBEFFF" points="234.33692 45.1045188 223.027952 138.048095 217.98212 142.127687 229.352864 46.9966068"></polygon><path d="M147.848818,224.423694 C148.156906,229.296474 144.927922,235.066986 140.636074,237.313098 C136.344226,239.558814 132.615094,237.429522 132.307006,232.556346 C131.998918,227.683566 135.227902,221.912658 139.51975,219.666942 C143.811202,217.42083 147.540334,219.550518 147.848818,224.423694" id="Fill-110" fill="#1717BD"></path><path d="M141.032509,230.832796 L140.649973,231.062476 C139.247737,231.903976 137.572657,231.926152 137.544145,230.3968 L136.187845,219.688564 C136.159729,218.160004 137.283973,216.220396 138.686209,215.378896 L142.765801,212.930032 C144.168037,212.088532 145.338613,212.650852 145.366333,214.179412 L143.792233,226.6942 C143.819953,228.22276 142.434745,229.991296 141.032509,230.832796" id="Fill-112" fill="#DBEFFF"></path><path d="M223.481729,178.216592 C223.789817,183.089372 220.560833,188.86028 216.268985,191.106392 C211.977137,193.352108 208.248401,191.22242 207.939917,186.34964 C207.631829,181.47686 210.860813,175.705952 215.152661,173.45984 C219.444509,171.214124 223.173245,173.343812 223.481729,178.216592" id="Fill-114" fill="#1717BD"></path><path d="M216.66542,184.62609 L216.282884,184.855374 C214.880648,185.69727 213.205568,185.71905 213.177452,184.190094 L211.820756,173.481858 C211.79264,171.952902 212.916884,170.01369 214.31912,169.171794 L218.398712,166.723326 C219.801344,165.88143 220.971524,166.44375 220.99964,167.972706 L219.425144,180.487098 C219.452864,182.016054 218.067656,183.784194 216.66542,184.62609" id="Fill-116" fill="#DBEFFF"></path><path d="M257.692406,32.0226192 C257.57321,29.4058512 254.67845,27.8879832 252.458078,29.2775472 L232.147238,41.9907312 C230.511758,43.0143912 229.18595,45.2486232 229.030322,47.2420872 L228.63947,52.2609912 L256.089398,35.0793432 C257.136422,34.4239632 257.749034,33.2561592 257.692406,32.0226192" id="Fill-118" fill="#FF61A6"></path><path d="M160.597404,156.827959 C160.597404,157.121791 160.835796,157.360183 161.129628,157.360183 C161.42346,157.360183 161.661852,157.121791 161.661852,156.827959 C161.661852,156.534127 161.42346,156.295735 161.129628,156.295735 C160.835796,156.295735 160.597404,156.534127 160.597404,156.827959" id="Fill-120" fill="#FF87B3"></path><polygon id="Fill-122" fill="#F2BC49" points="171.635508 91.9568628 171.635508 156.463283 144.600192 172.031231 144.579204 107.406407"></polygon><polygon id="Fill-124" fill="#FFCE43" points="144.579125 107.524415 144.600509 172.031231 117.523217 156.463283 117.523217 91.9810188"></polygon><polygon id="Fill-126" fill="#FF80DB" points="144.579125 107.524415 171.635429 91.9568628 144.755345 76.4376228 117.523217 91.9568628"></polygon><polygon id="Fill-128" fill="#FFDD7D" points="144.600746 107.736552 115.218734 90.772704 144.599954 73.809252 173.981966 90.773496"></polygon><polygon id="Fill-130" fill="#F2BC49" points="117.061362 93.4503768 117.215802 103.684997 144.576234 119.934065 144.57663 109.181081"></polygon><polygon id="Fill-132" fill="#CF3E82" points="171.876038 93.1719492 171.862178 104.193817 144.60035 119.934025 144.600746 109.181041"></polygon><polygon id="Fill-134" fill="#F2BC49" points="173.982125 90.773298 173.982125 101.360358 144.600509 118.32381 144.600905 107.570826"></polygon><polygon id="Fill-136" fill="#FFCE43" points="115.218655 90.7727436 115.218655 100.874308 144.600271 118.324048 144.600667 107.571064"></polygon><polygon id="Fill-138" fill="#2D62D1" points="128.065846 98.1866952 157.173826 81.0688032 159.943054 82.6678512 130.994662 99.7920792"></polygon><path d="M148.806702,89.2912284 L146.258442,86.0127444 C146.258442,86.0127444 161.322282,80.9344404 164.28357,88.4948724 L162.991026,93.4413084 C162.991026,93.4413084 150.196266,92.0545164 148.806702,89.2912284" id="Fill-140" fill="#1717BD"></path><path d="M145.743523,93.4414668 C145.743523,93.4414668 153.983887,103.780235 160.549963,98.6302548 C167.116435,93.4802748 164.283451,88.4950308 164.283451,88.4950308 C164.283451,88.4950308 160.601443,94.8397428 148.730551,88.4950308 L145.743523,93.4414668 Z" id="Fill-142" fill="#326DE8"></path><path d="M140.553349,84.6996876 L144.684421,85.1218236 C144.684421,85.1218236 141.002809,69.6576276 133.022221,71.1552996 L129.513661,74.8741356 C129.513661,74.8741356 137.473657,84.9871836 140.553349,84.6996876" id="Fill-144" fill="#1717BD"></path><path d="M138.658846,89.4975048 C138.658846,89.4975048 125.523922,87.9931008 126.408586,79.6953168 C127.293646,71.3971368 133.022578,71.1555768 133.022578,71.1555768 C133.022578,71.1555768 129.595198,77.6416608 141.268882,84.3423768 L138.658846,89.4975048 Z" id="Fill-146" fill="#326DE8"></path><path d="M144.98051,94.08168 L140.544914,91.613016 C138.641738,90.55332 137.396714,87.728256 137.778458,85.334436 C138.15941,82.940616 140.02853,81.848844 141.932102,82.908144 L146.367698,85.377204 C148.270874,86.436108 149.515898,89.261568 149.134154,91.655388 C148.752806,94.048812 146.884082,95.14098 144.98051,94.08168" id="Fill-148" fill="#1717BD"></path><path d="M143.620448,93.3086484 L140.40572,91.5195204 C139.026452,90.7516764 138.124364,88.7043564 138.400772,86.9694804 C138.67718,85.2346044 140.0315,84.4433964 141.411164,85.2112404 L144.625496,87.0003684 C146.004764,87.7678164 146.907248,89.8155324 146.63084,91.5504084 C146.354036,93.2848884 144.99932,94.0760964 143.620448,93.3086484" id="Fill-150" fill="#326DE8"></path><polygon id="Fill-152" fill="#2D62D1" points="128.065846 98.1866952 128.065846 108.521107 130.819234 110.136787 130.994662 99.7920792"></polygon><polygon id="Fill-154" fill="#1717BD" points="128.065846 108.520988 128.065846 110.236856 130.819234 111.746012 130.819234 110.137064"></polygon><polygon id="Fill-156" fill="#2D62D1" points="161.435023 98.1866952 161.435023 108.521107 158.681635 110.136787 158.506207 99.7920792"></polygon><polygon id="Fill-158" fill="#2D62D1" points="161.435023 110.236658 161.434627 162.524894 158.480467 164.223734 158.681635 111.74621"></polygon><polygon id="Fill-160" fill="#1717BD" points="161.435023 108.520988 161.435023 110.236856 158.681635 111.746012 158.681635 110.137064"></polygon><polygon id="Fill-162" fill="#2D62D1" points="128.065846 110.236658 128.065846 162.524894 131.020006 164.223338 130.819234 111.74621"></polygon><polygon id="Fill-164" fill="#C4DFFF" points="133.241684 181.011046 99.5773284 158.357074 100.903136 156.391726 134.567888 179.045698"></polygon><path d="M101.077891,134.712468 L130.826995,153.563652 L132.815707,188.31186 L103.066207,169.461072 L101.077891,134.712468 Z M134.265067,151.59474 L97.1479872,128.075112 L99.6289272,171.429192 L136.745611,194.949216 L134.265067,151.59474 Z" id="Fill-166" fill="#C4DFFF"></path><polygon id="Fill-168" fill="#C4DFFF" points="132.448892 167.142532 98.7845364 144.488164 100.110344 142.522816 133.775096 165.176788"></polygon><polygon id="Fill-170" fill="#C4DFFF" points="106.947126 175.688251 105.643494 138.450391 107.876538 138.175567 109.18017 175.413427"></polygon><polygon id="Fill-172" fill="#C4DFFF" points="116.443404 180.75812 115.139772 143.52026 117.372816 143.245436 118.676844 180.483296"></polygon><polygon id="Fill-174" fill="#C4DFFF" points="125.529743 187.441769 124.154039 148.162529 126.459155 149.929085 127.762787 187.166945"></polygon><polygon id="Fill-176" fill="#0C4CD1" points="147.749026 167.325444 139.554598 163.186452 150.761002 156.589488"></polygon><path d="M172.48667,118.711811 C172.48667,118.711811 172.703678,100.509275 162.478562,104.997935 C154.844474,108.349283 156.790418,126.910595 156.790418,126.910595" id="Stroke-178" stroke="#2D62D1" stroke-width="1.30482" stroke-linecap="round" stroke-linejoin="round"></path><polygon id="Fill-180" fill="#8DBAF2" points="200.531509 157.663282 162.892501 179.59693 156.151393 135.139198 192.747733 115.157434"></polygon><polygon id="Fill-182" fill="#D93079" points="192.749198 115.188203 183.212726 114.049703 183.527942 120.222947"></polygon><polygon id="Fill-184" fill="#4D90DB" points="148.304376 129.053232 183.212568 114.049584 183.838644 120.05334 156.1527 135.169848"></polygon><polygon id="Fill-186" fill="#8DBAF2" points="150.24339 166.748472 139.290426 167.032404 143.529606 129.609612 151.439706 131.496948"></polygon><polygon id="Fill-188" fill="#4D90DB" points="143.55392 129.622284 180.75614 108.66834 183.212528 114.049584 157.295516 132.889284"></polygon><polygon id="Fill-190" fill="#8DBAF2" points="162.894125 179.627342 139.290545 167.032166 150.243509 166.74863"></polygon><polygon id="Fill-192" fill="#94BEF2" points="160.340202 177.898327 140.426946 167.002783 150.24339 166.748551"></polygon><path d="M167.011099,136.807902 C167.066539,137.890566 167.877943,138.31983 168.823987,137.767014 C169.770031,137.214198 170.491939,135.88839 170.436499,134.805726 C170.381455,133.723062 169.569655,133.293798 168.623611,133.846614 C167.677963,134.39943 166.955659,135.725238 167.011099,136.807902" id="Fill-194" fill="#6499D6"></path><path d="M182.691788,128.775596 C182.747228,129.85826 183.558236,130.287524 184.50428,129.734708 C185.450324,129.181892 186.172232,127.856084 186.116792,126.77342 C186.061748,125.690756 185.250344,125.261492 184.3043,125.814308 C183.358652,126.367124 182.636348,127.693328 182.691788,128.775596" id="Fill-196" fill="#6499D6"></path><path d="M184.224348,127.604585 C184.224348,127.604585 184.441356,109.402049 174.21624,113.890709 C166.582548,117.242057 168.528492,135.803369 168.528492,135.803369" id="Stroke-198" stroke="#2D62D1" stroke-width="1.30482" stroke-linecap="round" stroke-linejoin="round"></path><polygon id="Fill-200" fill="#8DBAF2" points="156.152819 135.169769 156.990359 140.673377 151.272515 136.432217 151.440023 131.497265"></polygon><polygon id="Fill-202" fill="#8DBAF2" points="162.894125 179.627342 150.243509 166.74863 151.366169 136.434038 156.460709 137.19911"></polygon><polygon id="Fill-204" fill="#94BEF2" points="160.340202 177.898327 150.24339 166.748551 151.36605 133.683739 154.863126 136.096567"></polygon><path d="M186.26351,140.263636 L172.133042,148.03474" id="Stroke-206" stroke="#FFFFFF" stroke-width="0.563904" stroke-linecap="round" stroke-linejoin="round"></path><path d="M185.383717,145.086203 L176.265817,150.101147" id="Stroke-208" stroke="#FFFFFF" stroke-width="0.563904" stroke-linecap="round" stroke-linejoin="round"></path><path d="M138.605069,153.382284 L140.774753,187.827948 L217.982081,143.534556 L225.180173,81.80964 L138.605069,153.382284 Z M136.745849,194.949216 L134.264909,151.59474 L231.301145,71.5077 L222.367385,145.829376 L136.745849,194.949216 Z" id="Fill-210" fill="#DBEFFF"></path><polygon id="Fill-212" fill="#DBEFFF" points="209.421392 152.893501 207.116276 152.788561 213.203588 87.6913092 215.508704 87.7962492"></polygon><polygon id="Fill-214" fill="#DBEFFF" points="198.47029 158.283576 196.155274 158.165964 199.306246 98.415108 201.621658 98.53272"></polygon><polygon id="Fill-216" fill="#DBEFFF" points="186.991319 163.934694 184.677095 163.977066 185.621159 111.125718 187.935779 111.08295"></polygon><polygon id="Fill-218" fill="#DBEFFF" points="172.137082 173.870255 169.840282 174.140327 170.762962 122.743883 173.059762 122.473811"></polygon><polygon id="Fill-220" fill="#DBEFFF" points="158.778259 180.983563 156.464035 181.091671 156.551551 133.976779 158.865775 133.868671"></polygon><polygon id="Fill-222" fill="#DBEFFF" points="144.518378 189.071784 144.230882 145.478916 146.552234 145.174392 146.839334 188.767656"></polygon><polygon id="Fill-224" fill="#DBEFFF" points="137.041582 162.522004 135.85675 160.697236 226.159402 96.5123676 227.234938 98.4151476"></polygon><polygon id="Fill-226" fill="#DBEFFF" points="138.046669 172.398798 137.029345 170.464734 223.772353 117.865242 223.501885 121.019778"></polygon><polygon id="Fill-228" fill="#DBEFFF" points="138.224948 183.780709 137.23178 181.832389 222.747188 131.180029 222.287036 134.947969"></polygon></g></g></g></svg> 